<?xml version="1.0" standalone="no"?><!DOCTYPE svg PUBLIC "-//W3C//DTD SVG 1.1//EN" "http://www.w3.org/Graphics/SVG/1.1/DTD/svg11.dtd"><svg class="icon" width="200px" height="200.00px" viewBox="0 0 1024 1024" version="1.1" xmlns="http://www.w3.org/2000/svg"><path fill="#333333" d="M400.457143 171.885714h-173.714286c-31.085714 0-54.857143 23.771429-54.857143 54.857143v173.714286c0 31.085714 23.771429 54.857143 54.857143 54.857143h173.714286c31.085714 0 54.857143-23.771429 54.857143-54.857143V226.742857c0-31.085714-25.6-54.857143-54.857143-54.857143z m18.285714 226.742857c0 10.971429-7.314286 18.285714-18.285714 18.285715h-173.714286c-10.971429 0-18.285714-7.314286-18.285714-18.285715V226.742857c0-10.971429 7.314286-18.285714 18.285714-18.285714h173.714286c10.971429 0 18.285714 7.314286 18.285714 18.285714v171.885714zM603.428571 453.485714h173.714286c31.085714 0 54.857143-23.771429 54.857143-54.857143V226.742857c0-31.085714-23.771429-54.857143-54.857143-54.857143H603.428571c-31.085714 0-54.857143 23.771429-54.857142 54.857143v173.714286c0 29.257143 23.771429 53.028571 54.857142 53.028571zM585.142857 226.742857c0-10.971429 7.314286-18.285714 18.285714-18.285714h173.714286c10.971429 0 18.285714 7.314286 18.285714 18.285714v173.714286c0 10.971429-7.314286 18.285714-18.285714 18.285714H603.428571c-10.971429 0-18.285714-7.314286-18.285714-18.285714V226.742857zM400.457143 546.742857h-173.714286c-31.085714 0-54.857143 23.771429-54.857143 54.857143v173.714286c0 31.085714 23.771429 54.857143 54.857143 54.857143h173.714286c31.085714 0 54.857143-23.771429 54.857143-54.857143v-173.714286c0-29.257143-25.6-54.857143-54.857143-54.857143z m18.285714 228.571429c0 10.971429-7.314286 18.285714-18.285714 18.285714h-173.714286c-10.971429 0-18.285714-7.314286-18.285714-18.285714v-173.714286c0-10.971429 7.314286-18.285714 18.285714-18.285714h173.714286c10.971429 0 18.285714 7.314286 18.285714 18.285714v173.714286zM694.857143 793.6s-1.828571 0 0 0c-10.971429 0-18.285714 9.142857-18.285714 20.114286 0 9.142857 9.142857 16.457143 18.285714 16.457143h1.828571c9.142857 0 18.285714-9.142857 18.285715-18.285715-1.828571-9.142857-10.971429-18.285714-20.114286-18.285714z"  /><path fill="#333333" d="M833.828571 821.028571l-38.4-38.4c23.771429-25.6 36.571429-58.514286 36.571429-93.257142 0-78.628571-64-140.8-140.8-140.8S548.571429 610.742857 548.571429 689.371429c0 54.857143 31.085714 104.228571 80.457142 128 1.828571 1.828571 5.485714 1.828571 7.314286 1.828571 7.314286 0 12.8-3.657143 16.457143-10.971429 3.657143-9.142857 0-20.114286-9.142857-23.771428-36.571429-18.285714-60.342857-54.857143-60.342857-95.085714 0-58.514286 47.542857-104.228571 104.228571-104.228572s104.228571 47.542857 104.228572 104.228572c0 31.085714-12.8 60.342857-36.571429 80.457142 0 0-1.828571 0-1.828571 1.828572-3.657143 3.657143-5.485714 7.314286-5.485715 10.971428v7.314286c0 1.828571 1.828571 1.828571 1.828572 3.657143s0 1.828571 1.828571 3.657143l51.2 51.2c3.657143 3.657143 9.142857 5.485714 12.8 5.485714s9.142857-1.828571 12.8-5.485714c12.8-7.314286 12.8-20.114286 5.485714-27.428572z"  /></svg>