<?xml version="1.0" standalone="no"?><!DOCTYPE svg PUBLIC "-//W3C//DTD SVG 1.1//EN" "http://www.w3.org/Graphics/SVG/1.1/DTD/svg11.dtd"><svg t="1573462944371" class="icon" viewBox="0 0 1024 1024" version="1.1" xmlns="http://www.w3.org/2000/svg" p-id="2638" xmlns:xlink="http://www.w3.org/1999/xlink" width="200" height="200"><defs><style type="text/css"></style></defs><path d="M21.333333 21.333333m490.666667 0l0 0q490.666667 0 490.666667 490.666667l0 0q0 490.666667-490.666667 490.666667l0 0q-490.666667 0-490.666667-490.666667l0 0q0-490.666667 490.666667-490.666667Z" fill="#FFFFFF" p-id="2639"></path><path d="M614.528 360.832A33.536 33.536 0 0 0 564.906667 315.733333l-167.637334 184.362667a33.536 33.536 0 0 0 0 45.141333L564.906667 729.6a33.536 33.536 0 1 0 49.621333-45.098667l-147.114667-161.834666 147.114667-161.834667z" fill="#9EA8C6" p-id="2640"></path></svg>