<?xml version="1.0" standalone="no"?><!DOCTYPE svg PUBLIC "-//W3C//DTD SVG 1.1//EN" "http://www.w3.org/Graphics/SVG/1.1/DTD/svg11.dtd"><svg class="icon" width="200px" height="200.00px" viewBox="0 0 1024 1024" version="1.1" xmlns="http://www.w3.org/2000/svg"><path fill="#333333" d="M512 192a149.333333 149.333333 0 1 1-149.333333 149.333333 149.333333 149.333333 0 0 1 149.333333-149.333333m0-42.666667a192 192 0 1 0 192 192 192 192 0 0 0-192-192z"  /><path fill="#333333" d="M815.36 834.346667a21.333333 21.333333 0 0 1-21.333333-21.333334 282.026667 282.026667 0 0 0-564.053334 0 21.333333 21.333333 0 0 1-42.666666 0 324.693333 324.693333 0 0 1 649.386666 0 21.333333 21.333333 0 0 1-21.333333 21.333334z"  /></svg>