<?xml version="1.0" standalone="no"?><!DOCTYPE svg PUBLIC "-//W3C//DTD SVG 1.1//EN" "http://www.w3.org/Graphics/SVG/1.1/DTD/svg11.dtd"><svg class="icon" width="200px" height="200.00px" viewBox="0 0 1024 1024" version="1.1" xmlns="http://www.w3.org/2000/svg"><path fill="#333333" d="M864.95 286.99a25.161 25.161 0 0 0-20.62-10.74H301.29l-11.8-66.14c-2.13-11.93-12.5-20.61-24.61-20.61h-85.37c-13.81 0-25 11.19-25 25s11.19 25 25 25h64.43l11.09 62.17c0.02 1.32 0.15 2.65 0.38 3.97l35.67 199.99 0.09 0.5 20.3 101.79c6.59 33.06 35.85 57.05 69.56 57.05h378.16c13.81 0 25-11.19 25-25s-11.19-25-25-25H381.04c-9.95 0-18.58-7.08-20.52-16.83l-14.32-71.82h428.15c10.62 0 20.07-6.7 23.59-16.72l70.12-199.8c2.7-7.65 1.54-16.16-3.11-22.81zM756.62 476.32H338.37l-13.26-66.47-14.91-83.6h499.08l-52.66 150.07z"  /><path fill="#333333" d="M336.388121 812.16047a70.22 70.22 0 1 0 99.304343-99.30781 70.22 70.22 0 1 0-99.304343 99.30781Z"  /><path fill="#333333" d="M648.949828 814.920591a70.22 70.22 0 1 0 99.304343-99.307809 70.22 70.22 0 1 0-99.304343 99.307809Z"  /></svg>